<svg width="736" height="115" viewBox="0 0 736 115" fill="none" xmlns="http://www.w3.org/2000/svg">
<path d="M1.38306 19.3353C1.38306 8.82417 9.904 0.303223 20.4151 0.303223H308.275C318.786 0.303223 327.307 8.82417 327.307 19.3353V38.3674H20.4152C9.90404 38.3674 1.38306 29.8464 1.38306 19.3353V19.3353Z" fill="white"/>
<path d="M32.3672 18.7263V18.4598C32.3672 17.1847 30.9208 16.6518 27.5711 16.6518C23.917 16.7469 22.4896 17.413 22.4896 19.5827C22.4896 21.524 24.0312 22.5898 27.7234 22.5898C31.2063 22.5898 32.3672 21.9427 32.3672 20.7817V20.3821C33.4711 20.4201 34.9556 20.4201 36.2307 20.4201C37.5059 20.4201 38.781 20.4201 40.0372 20.3821C40.0562 20.7056 40.0752 21.0101 40.0752 21.2956C40.0752 25.3875 37.0872 27.2907 27.5141 27.2907C17.979 27.2907 14.5342 25.0639 14.5342 19.5637C14.5342 14.1015 18.9877 12.3315 27.476 12.3315C35.8501 12.3315 40.0181 13.2641 40.0181 17.5272C40.0181 17.9079 39.9801 18.3076 39.942 18.7263C38.6859 18.6882 37.4298 18.6882 36.1927 18.6882C34.9366 18.6882 33.4521 18.6882 32.3672 18.7263Z" fill="black"/>
<path d="M68.6098 19.6588C68.6098 24.5501 65.2031 27.481 55.3064 27.481C45.4097 27.481 42.1172 24.5501 42.1172 19.6588C42.1172 14.6534 45.9045 12.1412 55.3064 12.1412C64.7273 12.1412 68.6098 14.6534 68.6098 19.6588ZM55.3254 22.8753C59.246 22.8753 60.5783 21.7333 60.5783 19.6588C60.5783 17.5843 59.208 16.5376 55.3254 16.5376C51.4238 16.5376 50.0726 17.5843 50.0726 19.6588C50.0726 21.7333 51.4048 22.8753 55.3254 22.8753Z" fill="black"/>
<path d="M88.8308 12.6741H95.4349C95.3588 14.3869 95.3397 16.766 95.3397 19.7921C95.3397 22.9514 95.3397 25.083 95.3968 26.9481H87.1369C86.2044 25.7301 81.9983 22.6849 79.6002 20.8198C78.9151 20.1156 78.268 19.4304 77.716 18.7453L77.678 18.7643C77.7731 19.9062 77.7922 20.972 77.8302 22.1711C77.8683 24.5501 77.8873 26.2059 77.9254 26.9481H71.2642C71.2642 25.0068 71.3213 22.8562 71.3213 19.8111C71.3213 16.785 71.3403 14.6534 71.2642 12.6741H80.0951C80.628 13.4924 85.424 17.2798 87.5366 18.9166C88.0695 19.4495 88.6214 19.9443 89.0592 20.5153L89.0972 20.4962C89.0211 19.4875 89.0021 18.5359 88.983 17.8127C88.964 15.605 88.9069 13.5876 88.8308 12.6741Z" fill="black"/>
<path d="M115.324 12.6741H123.546C121.376 16.3473 117.303 24.4549 116.371 26.9481C114.81 26.9291 112.793 26.9101 110.585 26.9101C107.844 26.9101 105.903 26.9291 104.571 26.9481C103.562 24.512 99.3751 16.4424 97.1103 12.6741H105.922C106.227 13.835 108.168 18.2505 109.748 21.4098C110.09 22.0569 110.376 22.6659 110.604 23.1988C110.851 22.6659 111.118 22.0569 111.461 21.3908C112.907 18.2695 114.848 14.0444 115.324 12.6741Z" fill="black"/>
<path d="M125.199 12.6741H146.02C146.001 13.1308 145.982 13.854 145.982 14.4821C145.982 15.1292 145.982 15.8714 146.02 16.2902C142.271 16.2711 136.485 16.2521 133.097 16.2521V18.0982C136.961 18.0982 142.785 18.0982 145.811 18.0221C145.773 18.8024 145.754 20.363 145.773 21.2004C142.823 21.1624 136.923 21.1053 133.097 21.1053V23.0085C136.523 23.0085 142.613 22.9894 146.02 22.9704C145.982 23.4652 145.982 24.2646 145.982 25.0068C145.982 25.6539 145.982 26.4343 146.02 26.9481H125.199C125.294 24.9688 125.313 22.8562 125.313 19.8111C125.313 16.785 125.294 14.6344 125.199 12.6741Z" fill="black"/>
<path d="M162.265 19.2972C164.586 19.2972 165.424 18.8214 165.424 17.7937C165.424 16.7469 164.586 16.3853 162.284 16.3853C161.218 16.3853 158.439 16.4043 156.859 16.4614C156.859 17.394 156.859 18.3456 156.878 19.2592C158.058 19.2972 160.095 19.2972 162.265 19.2972ZM167.498 20.8008V20.934C170.867 21.2575 172.371 21.9046 172.884 24.1694C173.151 25.2543 173.398 26.3581 173.646 26.9481H167.175C165.919 26.9481 165.595 26.6817 165.234 24.9117C164.91 23.1607 164.377 22.7801 161.732 22.7801H156.936C156.993 24.493 157.069 25.9584 157.221 26.9481H149.361C149.418 24.8736 149.475 22.8753 149.475 19.8111C149.475 16.785 149.437 14.7295 149.361 12.6741H164.739C170.163 12.6741 172.846 13.797 172.846 16.8231C172.846 19.2972 171.305 20.4201 167.498 20.8008Z" fill="black"/>
<path d="M182.426 22.2091V22.3804C182.426 23.2369 183.378 23.5985 186.765 23.5985C190.439 23.5985 190.952 23.294 190.952 22.742C190.952 22.0949 190.61 21.7333 185.471 21.5811C177.344 21.3337 175.536 20.0585 175.536 17.1085C175.536 13.6637 178.639 12.2173 186.803 12.2173C195.825 12.2173 198.242 13.3021 198.242 16.5566C198.242 16.8421 198.242 17.1276 198.223 17.4511C197.233 17.356 195.52 17.3179 194.055 17.3179C193.008 17.3179 192.018 17.3369 191.428 17.375V17.0705C191.428 16.195 190.857 15.8905 187.127 15.8905C183.682 15.8905 183.13 16.176 183.13 16.6898C183.13 17.2989 183.511 17.6034 189.106 17.8508C196.548 18.1553 198.641 19.2021 198.641 22.5136C198.641 25.9775 195.996 27.4049 187.184 27.4049C178.106 27.4049 175.517 26.1868 175.517 23.1417C175.517 22.7991 175.536 22.4565 175.594 22.0759C176.812 22.152 178.486 22.2472 180.085 22.2472C180.98 22.2472 181.798 22.2472 182.426 22.2091Z" fill="black"/>
<path d="M212.752 21.0291C213.494 21.0291 214.465 21.0291 215.454 21.0101C214.96 19.8682 214.408 18.6882 213.894 17.6605C213.418 16.785 213.075 16.0047 212.79 15.3576C212.504 15.9856 212.162 16.766 211.705 17.6795C211.21 18.7072 210.677 19.8682 210.144 21.0101C211.115 21.0291 212.01 21.0291 212.752 21.0291ZM226.874 26.9481H217.662C217.567 26.4343 217.262 25.5397 216.863 24.4359C215.34 24.4359 213.875 24.4359 212.733 24.4359C211.648 24.4359 210.163 24.4359 208.66 24.4359C208.222 25.5017 207.88 26.3962 207.727 26.9481H199.296C201.542 23.2369 205.729 14.9579 206.624 12.6741H219.356C220.308 14.9769 224.533 23.1988 226.874 26.9481Z" fill="black"/>
<path d="M225.211 12.6741H246.318C246.261 13.3212 246.261 14.3108 246.261 15.1863C246.261 16.0618 246.261 17.1085 246.318 17.8127C244.072 17.7747 241.845 17.7556 239.79 17.7366C239.809 22.114 239.847 25.9584 239.904 26.9671C238.8 26.9101 237.03 26.9101 235.774 26.9101C234.499 26.9101 232.767 26.9101 231.625 26.9671C231.701 25.9584 231.739 22.114 231.739 17.7366C229.703 17.7556 227.457 17.7747 225.211 17.8127C225.23 17.1085 225.23 16.0618 225.23 15.1863C225.23 14.3108 225.23 13.3402 225.211 12.6741Z" fill="black"/>
<path d="M256.061 26.9481H248.238C248.314 24.7214 248.314 22.8372 248.314 19.8111C248.314 16.785 248.314 14.9008 248.238 12.6741H256.061C256.003 14.8818 256.003 16.7469 256.003 19.7921C256.003 22.7991 256.022 24.7023 256.061 26.9481Z" fill="black"/>
<path d="M285.137 19.6588C285.137 24.5501 281.73 27.481 271.833 27.481C261.937 27.481 258.644 24.5501 258.644 19.6588C258.644 14.6534 262.432 12.1412 271.833 12.1412C281.254 12.1412 285.137 14.6534 285.137 19.6588ZM271.852 22.8753C275.773 22.8753 277.105 21.7333 277.105 19.6588C277.105 17.5843 275.735 16.5376 271.852 16.5376C267.951 16.5376 266.6 17.5843 266.6 19.6588C266.6 21.7333 267.932 22.8753 271.852 22.8753Z" fill="black"/>
<path d="M305.358 12.6741H311.962C311.886 14.3869 311.867 16.766 311.867 19.7921C311.867 22.9514 311.867 25.083 311.924 26.9481H303.664C302.731 25.7301 298.525 22.6849 296.127 20.8198C295.442 20.1156 294.795 19.4304 294.243 18.7453L294.205 18.7643C294.3 19.9062 294.319 20.972 294.357 22.1711C294.395 24.5501 294.414 26.2059 294.452 26.9481H287.791C287.791 25.0068 287.848 22.8562 287.848 19.8111C287.848 16.785 287.867 14.6534 287.791 12.6741H296.622C297.155 13.4924 301.951 17.2798 304.064 18.9166C304.596 19.4495 305.148 19.9443 305.586 20.5153L305.624 20.4962C305.548 19.4875 305.529 18.5359 305.51 17.8127C305.491 15.605 305.434 13.5876 305.358 12.6741Z" fill="black"/>
<path d="M126.519 72.6881C126.519 62.1769 117.998 53.656 107.487 53.656H19.9392C9.4281 53.656 0.907135 62.1769 0.907135 72.6881V91.7201H107.487C117.998 91.7201 126.519 83.1992 126.519 72.6881V72.6881Z" fill="white"/>
<path d="M167.914 95.3201C167.914 84.809 176.435 76.2881 186.946 76.2881H308.275C318.786 76.2881 327.307 84.809 327.307 95.3201V114.352H186.946C176.435 114.352 167.914 105.831 167.914 95.3201V95.3201Z" fill="white"/>
<path d="M350.066 50.2624H360.724C360.667 50.4718 360.572 50.7953 360.515 51.0618C360.42 51.3853 360.363 51.7279 360.287 52.0134C357.165 51.9753 354.101 51.9753 351.627 51.9753C351.227 53.5169 350.675 55.7437 350.333 57.133L350.238 57.5517C353.245 57.5517 356.214 57.5517 358.802 57.4946C358.65 57.9514 358.44 58.7507 358.345 59.1695C355.814 59.1504 352.807 59.1314 349.838 59.1314C349.362 61.0536 348.848 63.2233 348.582 64.5365H346.507C347.04 62.6143 347.592 60.4446 348.334 57.3995C349.096 54.3734 349.648 52.1847 350.066 50.2624Z" fill="black"/>
<path d="M374.519 58.0466C373.377 62.6143 370.294 64.7839 366.411 64.7839C362.015 64.7839 359.94 61.8149 361.196 56.7524C362.338 52.1657 365.421 50.015 369.304 50.015C373.681 50.015 375.775 52.965 374.519 58.0466ZM366.639 63.052C369.399 63.052 371.702 61.3962 372.634 57.723C373.586 53.8976 372.14 51.7469 369.075 51.7469C366.316 51.7469 363.994 53.4027 363.08 57.0759C362.091 61.0346 363.556 63.052 366.639 63.052Z" fill="black"/>
<path d="M387.882 55.0966C388.433 52.8318 387.539 51.8421 384.932 51.8421C384.227 51.8421 382.191 51.8611 381.125 51.9182C380.63 53.8595 380.136 55.8008 379.698 57.6088C380.383 57.6279 382.191 57.6469 383.847 57.6469C386.188 57.6469 387.501 56.6192 387.882 55.0966ZM379.584 50.2624H385.541C388.909 50.2624 390.546 51.9182 389.785 55.0014C389.29 57.0188 387.996 58.2179 385.445 58.5224L385.426 58.5985C387.196 58.8459 387.596 59.4169 387.901 61.5294C388.091 62.8997 388.224 63.9655 388.376 64.5365H386.702C386.264 64.5365 386.245 64.3652 386.131 63.5278C385.693 59.8546 385.693 59.1504 383.409 59.1504H379.317C378.784 61.3581 378.346 63.2614 378.118 64.5365H376.025C376.577 62.462 377.109 60.4446 377.871 57.3995C378.632 54.3734 379.108 52.3179 379.584 50.2624Z" fill="black"/>
<path d="M409.168 19.3995C409.168 8.90609 417.675 0.399506 428.168 0.399506H716.093C726.586 0.399506 735.093 8.90609 735.093 19.3995C735.093 29.8929 726.586 38.3995 716.093 38.3995H428.168C417.675 38.3995 409.168 29.8929 409.168 19.3995Z" fill="white"/>
<path d="M625.259 57.3995C625.259 67.8929 616.753 76.3995 606.259 76.3995L538.002 76.3995C527.508 76.3995 519.002 67.8929 519.002 57.3995C519.002 46.9061 527.508 38.3995 538.002 38.3995L606.259 38.3995C616.753 38.3995 625.259 46.9061 625.259 57.3995Z" fill="white"/>
<path d="M519.002 114.4C519.002 93.4127 536.015 76.3995 557.002 76.3995H587.259C608.246 76.3995 625.259 93.4127 625.259 114.4H519.002Z" fill="white"/>
<path d="M450.62 18.3165V18.0505C450.62 16.7775 449.174 16.2455 445.824 16.2455C442.17 16.3405 440.743 17.0055 440.743 19.1715C440.743 21.1095 442.284 22.1735 445.977 22.1735C449.459 22.1735 450.62 21.5275 450.62 20.3685V19.9695C451.724 20.0075 453.209 20.0075 454.484 20.0075C455.759 20.0075 457.034 20.0075 458.29 19.9695C458.309 20.2925 458.328 20.5965 458.328 20.8815C458.328 24.9665 455.34 26.8665 445.767 26.8665C436.232 26.8665 432.787 24.6435 432.787 19.1525C432.787 13.6995 437.241 11.9325 445.729 11.9325C454.103 11.9325 458.271 12.8635 458.271 17.1195C458.271 17.4995 458.233 17.8985 458.195 18.3165C456.939 18.2785 455.683 18.2785 454.446 18.2785C453.19 18.2785 451.705 18.2785 450.62 18.3165Z" fill="black"/>
<path d="M486.863 19.2475C486.863 24.1305 483.456 27.0565 473.56 27.0565C463.663 27.0565 460.37 24.1305 460.37 19.2475C460.37 14.2505 464.158 11.7425 473.56 11.7425C482.98 11.7425 486.863 14.2505 486.863 19.2475ZM473.579 22.4585C477.499 22.4585 478.831 21.3185 478.831 19.2475C478.831 17.1765 477.461 16.1315 473.579 16.1315C469.677 16.1315 468.326 17.1765 468.326 19.2475C468.326 21.3185 469.658 22.4585 473.579 22.4585Z" fill="black"/>
<path d="M507.084 12.2745H513.688C513.612 13.9845 513.593 16.3595 513.593 19.3805C513.593 22.5345 513.593 24.6625 513.65 26.5245H505.39C504.458 25.3085 500.251 22.2685 497.853 20.4065C497.168 19.7035 496.521 19.0195 495.969 18.3355L495.931 18.3545C496.026 19.4945 496.045 20.5585 496.083 21.7555C496.121 24.1305 496.141 25.7835 496.179 26.5245H489.517C489.517 24.5865 489.574 22.4395 489.574 19.3995C489.574 16.3785 489.593 14.2505 489.517 12.2745H498.348C498.881 13.0915 503.677 16.8725 505.79 18.5065C506.323 19.0385 506.875 19.5325 507.312 20.1025L507.35 20.0835C507.274 19.0765 507.255 18.1265 507.236 17.4045C507.217 15.2005 507.16 13.1865 507.084 12.2745Z" fill="black"/>
<path d="M523.547 21.7935V21.9645C523.547 22.8195 524.499 23.1805 527.887 23.1805C531.56 23.1805 532.074 22.8765 532.074 22.3255C532.074 21.6795 531.731 21.3185 526.592 21.1665C518.466 20.9195 516.658 19.6465 516.658 16.7015C516.658 13.2625 519.76 11.8185 527.925 11.8185C536.946 11.8185 539.363 12.9015 539.363 16.1505C539.363 16.4355 539.363 16.7205 539.344 17.0435C538.354 16.9485 536.641 16.9105 535.176 16.9105C534.129 16.9105 533.139 16.9295 532.549 16.9675V16.6635C532.549 15.7895 531.978 15.4855 528.248 15.4855C524.803 15.4855 524.251 15.7705 524.251 16.2835C524.251 16.8915 524.632 17.1955 530.228 17.4425C537.669 17.7465 539.763 18.7915 539.763 22.0975C539.763 25.5555 537.117 26.9805 528.305 26.9805C519.227 26.9805 516.639 25.7645 516.639 22.7245C516.639 22.3825 516.658 22.0405 516.715 21.6605C517.933 21.7365 519.608 21.8315 521.206 21.8315C522.101 21.8315 522.919 21.8315 523.547 21.7935Z" fill="black"/>
<path d="M540.944 12.2745H562.051C561.994 12.9205 561.994 13.9085 561.994 14.7825C561.994 15.6565 561.994 16.7015 562.051 17.4045C559.805 17.3665 557.578 17.3475 555.523 17.3285C555.542 21.6985 555.58 25.5365 555.637 26.5435C554.533 26.4865 552.763 26.4865 551.507 26.4865C550.232 26.4865 548.5 26.4865 547.358 26.5435C547.434 25.5365 547.472 21.6985 547.472 17.3285C545.436 17.3475 543.19 17.3665 540.944 17.4045C540.963 16.7015 540.963 15.6565 540.963 14.7825C540.963 13.9085 540.963 12.9395 540.944 12.2745Z" fill="black"/>
<path d="M571.793 26.5245H563.971C564.047 24.3015 564.047 22.4205 564.047 19.3995C564.047 16.3785 564.047 14.4975 563.971 12.2745H571.793C571.736 14.4785 571.736 16.3405 571.736 19.3805C571.736 22.3825 571.755 24.2825 571.793 26.5245Z" fill="black"/>
<path d="M573.73 12.2745H594.836C594.779 12.9205 594.779 13.9085 594.779 14.7825C594.779 15.6565 594.779 16.7015 594.836 17.4045C592.591 17.3665 590.364 17.3475 588.308 17.3285C588.327 21.6985 588.365 25.5365 588.423 26.5435C587.319 26.4865 585.549 26.4865 584.293 26.4865C583.017 26.4865 581.286 26.4865 580.144 26.5435C580.22 25.5365 580.258 21.6985 580.258 17.3285C578.221 17.3475 575.976 17.3665 573.73 17.4045C573.749 16.7015 573.749 15.6565 573.749 14.7825C573.749 13.9085 573.749 12.9395 573.73 12.2745Z" fill="black"/>
<path d="M613.429 12.2745H621.175C621.099 13.4145 621.061 14.5545 621.061 16.2455C621.061 17.2145 621.118 18.6395 621.118 19.4945C621.118 24.9475 618.434 26.9805 608.899 26.9805C599.364 26.9805 596.681 24.9475 596.681 19.4945C596.681 18.6395 596.719 17.2145 596.719 16.2455C596.719 14.5545 596.681 13.4145 596.624 12.2745H604.56C604.503 14.3455 604.446 17.3665 604.446 19.1145C604.446 21.1095 605.854 22.0025 609.071 22.0025C612.306 22.0025 613.543 21.1095 613.543 19.1145C613.543 17.3665 613.486 14.3265 613.429 12.2745Z" fill="black"/>
<path d="M622.964 12.2745H644.071C644.014 12.9205 644.014 13.9085 644.014 14.7825C644.014 15.6565 644.014 16.7015 644.071 17.4045C641.825 17.3665 639.598 17.3475 637.543 17.3285C637.562 21.6985 637.6 25.5365 637.657 26.5435C636.553 26.4865 634.783 26.4865 633.527 26.4865C632.252 26.4865 630.52 26.4865 629.378 26.5435C629.454 25.5365 629.492 21.6985 629.492 17.3285C627.456 17.3475 625.21 17.3665 622.964 17.4045C622.983 16.7015 622.983 15.6565 622.983 14.7825C622.983 13.9085 622.983 12.9395 622.964 12.2745Z" fill="black"/>
<path d="M653.813 26.5245H645.991C646.067 24.3015 646.067 22.4205 646.067 19.3995C646.067 16.3785 646.067 14.4975 645.991 12.2745H653.813C653.756 14.4785 653.756 16.3405 653.756 19.3805C653.756 22.3825 653.775 24.2825 653.813 26.5245Z" fill="black"/>
<path d="M682.89 19.2475C682.89 24.1305 679.483 27.0565 669.586 27.0565C659.689 27.0565 656.397 24.1305 656.397 19.2475C656.397 14.2505 660.184 11.7425 669.586 11.7425C679.007 11.7425 682.89 14.2505 682.89 19.2475ZM669.605 22.4585C673.526 22.4585 674.858 21.3185 674.858 19.2475C674.858 17.1765 673.488 16.1315 669.605 16.1315C665.704 16.1315 664.352 17.1765 664.352 19.2475C664.352 21.3185 665.685 22.4585 669.605 22.4585Z" fill="black"/>
<path d="M703.111 12.2745H709.715C709.639 13.9845 709.62 16.3595 709.62 19.3805C709.62 22.5345 709.62 24.6625 709.677 26.5245H701.417C700.484 25.3085 696.278 22.2685 693.88 20.4065C693.195 19.7035 692.548 19.0195 691.996 18.3355L691.958 18.3545C692.053 19.4945 692.072 20.5585 692.11 21.7555C692.148 24.1305 692.167 25.7835 692.205 26.5245H685.544C685.544 24.5865 685.601 22.4395 685.601 19.3995C685.601 16.3785 685.62 14.2505 685.544 12.2745H694.375C694.908 13.0915 699.704 16.8725 701.816 18.5065C702.349 19.0385 702.901 19.5325 703.339 20.1025L703.377 20.0835C703.301 19.0765 703.282 18.1265 703.263 17.4045C703.244 15.2005 703.187 13.1865 703.111 12.2745Z" fill="black"/>
</svg>
