<svg width="466" height="161" viewBox="0 0 466 161" fill="none" xmlns="http://www.w3.org/2000/svg">
<path d="M40 0.239532C17.9087 0.239532 0 18.1482 0 40.2395C0 62.3308 17.9087 80.2395 40 80.2395H97.6445C99.2065 80.2395 99.9069 82.3382 98.7406 83.3774C89.6961 91.436 84 103.173 84 116.24C84 140.54 103.699 160.24 128 160.24H375V112.24C375 100.877 370.263 90.6219 362.656 83.3402C361.545 82.2775 362.26 80.2395 363.797 80.2395H426C448.091 80.2395 466 62.3308 466 40.2395C466 18.1482 448.091 0.239532 426 0.239532H40Z" fill="white"/>
<path d="M428.367 60.2396H406.789C407.013 55.0407 407.18 50.1213 407.236 44.1397C407.236 41.5123 407.404 38.6054 407.572 35.7544L407.18 35.6426C405.895 38.4936 404.497 41.4005 403.044 43.6366L391.695 60.2396H379.788L367.266 41.9036C365.868 39.6675 364.471 36.7606 363.185 34.0214L362.738 34.0773C362.961 36.8724 363.185 39.6675 363.241 42.6304C363.297 49.2828 363.409 54.7612 363.688 60.2396H344.458C344.793 54.2022 344.905 48.1088 344.905 39.2203C344.905 30.0523 344.793 23.7912 344.57 18.3128H374.645C376.881 22.5055 380.124 28.0398 384.26 35.0276C385.434 37.096 386.72 39.5557 388.006 42.0713H388.062C389.292 39.5557 390.521 37.096 391.639 35.0276C395.497 28.3752 399.074 22.3937 401.255 18.3128H428.256C428.088 23.7912 427.92 30.0523 427.92 39.2203C427.92 48.1088 427.976 54.2022 428.367 60.2396Z" fill="black"/>
<path d="M297.869 42.854C300.049 42.854 302.9 42.854 305.807 42.7981C304.353 39.4439 302.732 35.978 301.223 32.9592C299.982 30.6758 299.049 28.6128 298.269 26.8484C298.157 26.5956 297.8 26.5938 297.686 26.8457C296.907 28.5694 295.982 30.6388 294.794 33.0151C293.341 36.0339 291.775 39.4439 290.21 42.7981C293.061 42.854 295.689 42.854 297.869 42.854ZM339.348 60.2396H312.292C312.012 58.7303 311.118 56.1029 309.944 52.8605C305.471 52.8605 301.167 52.8605 297.813 52.8605C294.626 52.8605 290.266 52.8605 285.85 52.8605C284.564 55.991 283.558 58.6185 283.11 60.2396H258.346C264.942 49.3387 277.241 25.0211 279.868 18.3128H317.267C320.062 25.077 332.472 49.2269 339.348 60.2396Z" fill="black"/>
<path d="M192.687 18.3128H253.844C253.788 19.6545 253.732 21.7788 253.732 23.6235C253.732 25.5242 253.732 27.7044 253.844 28.9343C242.831 28.8784 225.837 28.8225 215.886 28.8225V34.245C227.234 34.245 244.34 34.245 253.229 34.0214C253.117 36.3134 253.061 40.8974 253.117 43.3571C244.452 43.2453 227.122 43.0776 215.886 43.0776V48.6678C225.948 48.6678 243.837 48.6119 253.844 48.556C253.732 50.0095 253.732 52.3574 253.732 54.5376C253.732 56.4383 253.732 58.7303 253.844 60.2396H192.687C192.966 54.4258 193.022 48.2206 193.022 39.2762C193.022 30.3877 192.966 24.0708 192.687 18.3128Z" fill="black"/>
<path d="M151.812 37.7669C158.632 37.7669 161.091 36.3693 161.091 33.3506C161.091 30.2759 158.632 29.2138 151.867 29.2138C148.737 29.2138 140.575 29.2697 135.935 29.4374C135.935 32.1766 135.935 34.9717 135.991 37.655C139.457 37.7669 145.439 37.7669 151.812 37.7669ZM167.185 42.1831V42.5745C177.079 43.5248 181.496 45.4255 183.005 52.0779C183.788 55.2643 184.514 58.5067 185.241 60.2396H166.234C162.545 60.2396 161.594 59.457 160.532 54.2581C159.582 49.115 158.017 47.997 150.246 47.997H136.159C136.327 53.0282 136.55 57.3327 136.997 60.2396H113.91C114.077 54.1463 114.245 48.2765 114.245 39.2762C114.245 30.3877 114.133 24.3503 113.91 18.3128H159.079C175.011 18.3128 182.893 21.611 182.893 30.4995C182.893 37.7669 178.365 41.0651 167.185 42.1831Z" fill="black"/>
<path d="M73.7279 47.5498C80.6598 47.5498 84.2935 44.9224 84.2935 38.5495C84.2935 32.4002 80.9952 30.1082 73.7279 30.1082C68.7526 30.1082 64.1127 30.1642 59.5846 30.3319C59.5287 33.3506 59.4728 36.4811 59.4728 39.444C59.4728 42.5745 59.4728 45.0901 59.4728 47.2703C64.4481 47.7175 68.3613 47.5498 73.7279 47.5498ZM37 18.3128H76.4671C99.443 18.3128 107.102 24.3503 107.102 38.1023C107.102 53.6432 100.058 60.2397 76.1876 60.2397H37C37.1677 54.314 37.1677 48.2206 37.1677 39.3322C37.1677 30.4437 37.1677 24.0708 37 18.3128Z" fill="black"/>
<path d="M329.23 94.3128H348.628C348.404 99.344 348.348 106.332 348.348 115.22C348.348 124.5 348.348 130.761 348.516 136.24H324.254C321.515 132.662 309.161 123.717 302.117 118.239C300.105 116.171 298.204 114.158 296.583 112.146L296.471 112.202C296.75 115.556 296.806 118.686 296.918 122.208C297.03 129.196 297.086 134.059 297.198 136.24H277.632C277.632 130.538 277.8 124.221 277.8 115.276C277.8 106.388 277.855 100.127 277.632 94.3128H303.571C305.136 96.7166 319.223 107.841 325.428 112.649C326.994 114.214 328.615 115.668 329.901 117.345L330.012 117.289C329.789 114.326 329.733 111.531 329.677 109.406C329.621 102.922 329.453 96.9961 329.23 94.3128Z" fill="black"/>
<path d="M272.835 114.829C272.835 129.196 262.828 137.805 233.759 137.805C204.69 137.805 195.019 129.196 195.019 114.829C195.019 100.126 206.143 92.7474 233.759 92.7474C261.431 92.7474 272.835 100.126 272.835 114.829ZM233.815 124.276C245.331 124.276 249.244 120.922 249.244 114.829C249.244 108.735 245.219 105.661 233.815 105.661C222.355 105.661 218.386 108.735 218.386 114.829C218.386 120.922 222.299 124.276 233.815 124.276Z" fill="black"/>
<path d="M168.381 112.09V111.307C168.381 107.562 164.132 105.996 154.293 105.996C143.56 106.276 139.367 108.232 139.367 114.605C139.367 120.307 143.895 123.438 154.74 123.438C164.971 123.438 168.381 121.537 168.381 118.127V116.953C171.623 117.065 175.983 117.065 179.729 117.065C183.474 117.065 187.22 117.065 190.909 116.953C190.965 117.904 191.021 118.798 191.021 119.636C191.021 131.656 182.244 137.246 154.125 137.246C126.118 137.246 116 130.705 116 114.549C116 98.5054 129.081 93.3064 154.014 93.3064C178.611 93.3064 190.853 96.0457 190.853 108.568C190.853 109.686 190.742 110.86 190.63 112.09C186.94 111.978 183.251 111.978 179.617 111.978C175.927 111.978 171.567 111.978 168.381 112.09Z" fill="black"/>
</svg>
