<svg width="64" height="33" viewBox="0 0 64 33" fill="none" xmlns="http://www.w3.org/2000/svg">
<g clip-path="url(#clip0_296_5390)">
<path d="M55.5495 12.5752L56.572 13.3385V26.2559C56.572 27.6211 56.426 28.4577 55.8417 28.9862C55.2574 29.5146 54.8922 29.632 53.4753 29.632C52.9933 29.632 52.891 29.632 51.927 29.632H51.8539L50.6708 28.766V32.5091C51.8872 32.7511 53.1269 32.8544 54.3664 32.8173C56.3081 33.0622 58.2684 32.5355 59.8294 31.3495C60.5813 30.7853 61.1772 30.0374 61.5607 29.1768C61.9441 28.3162 62.1024 27.3714 62.0205 26.4321V13.6321L63.189 12.7513L55.5495 12.5752ZM23.1072 16.5091L24.2757 15.6431H28.8186V31.5256L27.65 32.3917H35.6839L34.5007 31.5256V15.6431H39.0581L40.2267 16.5091V12.5752H23.1072V16.5091ZM49.2831 12.5458H41.6436L42.8121 13.4119V31.4963L41.6436 32.3623H49.2831L48.1145 31.4963V13.4119L49.2831 12.5458Z" fill="black"/>
<path d="M5.78319 8.61189C3.06627 7.92198 0.787546 4.45775 0.247083 5.01554C-0.29338 5.57334 1.45947 8.37707 3.1685 9.56606C4.86059 10.4617 6.68572 11.0763 8.57314 11.3862C8.59343 12.323 8.50518 13.259 8.31021 14.1753C7.98885 15.9808 5.38879 23.9514 5.05283 26.8432C4.71687 29.7349 4.55619 32.377 4.55619 32.377H9.99004C9.99004 32.377 11.5822 14.1165 11.4507 11.6798C11.3193 9.24312 8.4855 9.28712 5.78319 8.61189ZM23.6769 5.01554C23.1218 4.45775 20.8577 7.95134 18.1408 8.61189C15.4239 9.27244 12.5025 9.22845 12.3856 11.6798C12.2687 14.1312 13.8463 32.377 13.8463 32.377H19.3824C19.3824 32.377 19.2655 29.7349 18.8711 26.8432C18.4767 23.9514 15.9497 15.9808 15.6138 14.1753C15.4188 13.259 15.3306 12.323 15.3508 11.3862C17.2388 11.0784 19.0642 10.4636 20.7555 9.56606C22.4645 8.37707 24.2319 5.58802 23.6769 5.01554Z" fill="black"/>
<path d="M11.962 0.699905C11.1819 0.699905 10.4194 0.932417 9.77087 1.36791C9.1223 1.8034 8.61678 2.4224 8.31828 3.1466C8.01977 3.8708 7.94167 4.66761 8.09385 5.43641C8.24603 6.20522 8.62166 6.91141 9.17322 7.46569C9.72479 8.01997 10.4275 8.39747 11.1926 8.55039C11.9576 8.70332 12.7506 8.62486 13.4713 8.32489C14.1919 8.02491 14.8079 7.51691 15.2412 6.86515C15.6746 6.21339 15.9059 5.44709 15.9059 4.66323C15.9059 3.61209 15.4904 2.60402 14.7508 1.86076C14.0111 1.1175 13.008 0.699905 11.962 0.699905Z" fill="black"/>
</g>
<defs>
<clipPath id="clip0_296_5390">
<rect width="63.0588" height="32" fill="#000000" transform="translate(0.144836 0.699951)"/>
</clipPath>
</defs>
</svg>
