<svg width="24" height="25" viewBox="0 0 24 25" fill="none" xmlns="http://www.w3.org/2000/svg">
<mask id="mask0_296_4994" style="mask-type:alpha" maskUnits="userSpaceOnUse" x="0" y="0" width="24" height="25">
<rect y="0.399475" width="24" height="24" fill="#D9D9D9"/>
</mask>
<g mask="url(#mask0_296_4994)">
<path d="M12.0249 15.6995C11.8416 15.6995 11.6749 15.6703 11.5249 15.612C11.3749 15.5536 11.2332 15.4578 11.0999 15.3245L6.3999 10.6245C6.1499 10.3745 6.0249 10.0661 6.0249 9.69948C6.0249 9.33281 6.1499 9.02448 6.3999 8.77448C6.6499 8.52448 6.95824 8.39948 7.3249 8.39948C7.69157 8.39948 7.9999 8.52448 8.2499 8.77448L12.0249 12.5495L15.7999 8.77448C16.0499 8.52448 16.3582 8.39948 16.7249 8.39948C17.0916 8.39948 17.3999 8.52448 17.6499 8.77448C17.8999 9.02448 18.0249 9.33281 18.0249 9.69948C18.0249 10.0661 17.8999 10.3745 17.6499 10.6245L12.9499 15.3245C12.8166 15.4578 12.6749 15.5536 12.5249 15.612C12.3749 15.6703 12.2082 15.6995 12.0249 15.6995Z" fill="#454343"/>
</g>
</svg>
