<svg width="10" height="6" viewBox="0 0 10 6" fill="none" xmlns="http://www.w3.org/2000/svg">
<path d="M5.01953 5.475C4.88203 5.475 4.75703 5.45313 4.64453 5.40938C4.53203 5.36563 4.42578 5.29375 4.32578 5.19375L0.800781 1.66875C0.613281 1.48125 0.519531 1.25 0.519531 0.975C0.519531 0.7 0.613281 0.46875 0.800781 0.28125C0.988281 0.09375 1.21953 0 1.49453 0C1.76953 0 2.00078 0.09375 2.18828 0.28125L5.01953 3.1125L7.85078 0.28125C8.03828 0.09375 8.26953 0 8.54453 0C8.81953 0 9.05078 0.09375 9.23828 0.28125C9.42578 0.46875 9.51953 0.7 9.51953 0.975C9.51953 1.25 9.42578 1.48125 9.23828 1.66875L5.71328 5.19375C5.61328 5.29375 5.50703 5.36563 5.39453 5.40938C5.28203 5.45313 5.15703 5.475 5.01953 5.475Z" fill="white"/>
</svg>
