<svg width="24" height="25" viewBox="0 0 24 25" fill="none" xmlns="http://www.w3.org/2000/svg">
<mask id="mask0_883_5001" style="mask-type:alpha" maskUnits="userSpaceOnUse" x="0" y="0" width="24" height="25">
<rect y="0.559448" width="24" height="24" fill="#D9D9D9"/>
</mask>
<g mask="url(#mask0_883_5001)">
<path d="M15.675 13.9094H4.52495C4.15828 13.9094 3.84578 13.7803 3.58745 13.5219C3.32912 13.2636 3.19995 12.9511 3.19995 12.5844C3.19995 12.2178 3.32912 11.9053 3.58745 11.6469C3.84578 11.3886 4.15828 11.2594 4.52495 11.2594H15.675L11.025 6.60945C10.7583 6.34278 10.625 6.02611 10.625 5.65945C10.625 5.29278 10.7583 4.97611 11.025 4.70945C11.2916 4.44278 11.6083 4.30945 11.975 4.30945C12.3416 4.30945 12.6583 4.44278 12.925 4.70945L19.875 11.6594C20.0083 11.7928 20.1041 11.9344 20.1625 12.0844C20.2208 12.2344 20.25 12.4011 20.25 12.5844C20.25 12.7678 20.2208 12.9344 20.1625 13.0844C20.1041 13.2344 20.0083 13.3761 19.875 13.5094L12.975 20.4094C12.7083 20.6761 12.3916 20.8094 12.025 20.8094C11.6583 20.8094 11.3416 20.6761 11.075 20.4094C10.8083 20.1428 10.675 19.8261 10.675 19.4594C10.675 19.0928 10.8083 18.7761 11.075 18.5094L15.675 13.9094Z" fill="white"/>
</g>
</svg>
