<svg width="16" height="16" viewBox="0 0 16 16" fill="none" xmlns="http://www.w3.org/2000/svg">
<mask id="mask0_2122_19144" style="mask-type:alpha" maskUnits="userSpaceOnUse" x="0" y="0" width="24" height="24">
<rect width="24" height="24" fill="#D9D9D9"/>
</mask>
<g mask="url(#mask0_2122_19144)">
<path d="M4.59995 14.5334C4.09995 14.5334 3.68051 14.3639 3.34162 14.025C3.00273 13.6861 2.83328 13.2667 2.83328 12.7667V3.93337C2.58884 3.93337 2.38051 3.84725 2.20828 3.67503C2.03606 3.50281 1.94995 3.29448 1.94995 3.05003C1.94995 2.80559 2.03606 2.59725 2.20828 2.42503C2.38051 2.25281 2.58884 2.1667 2.83328 2.1667H5.96662C5.96662 1.94448 6.04328 1.75559 6.19662 1.60003C6.34995 1.44448 6.53995 1.3667 6.76662 1.3667H9.26662C9.49329 1.3667 9.68329 1.44337 9.83662 1.5967C9.98995 1.75003 10.0666 1.94003 10.0666 2.1667H13.2C13.4444 2.1667 13.6527 2.25281 13.825 2.42503C13.9972 2.59725 14.0833 2.80559 14.0833 3.05003C14.0833 3.29448 13.9972 3.50281 13.825 3.67503C13.6527 3.84725 13.4444 3.93337 13.2 3.93337V12.7667C13.2 13.2667 13.0305 13.6861 12.6916 14.025C12.3527 14.3639 11.9333 14.5334 11.4333 14.5334H4.59995ZM11.4333 3.93337H4.59995V12.7667H11.4333V3.93337ZM6.53328 11.4167C6.77773 11.4167 6.98606 11.3306 7.15828 11.1584C7.33051 10.9861 7.41662 10.7778 7.41662 10.5334V6.1667C7.41662 5.92225 7.33051 5.71392 7.15828 5.5417C6.98606 5.36948 6.77773 5.28337 6.53328 5.28337C6.28884 5.28337 6.08051 5.36948 5.90828 5.5417C5.73606 5.71392 5.64995 5.92225 5.64995 6.1667V10.5334C5.64995 10.7778 5.73606 10.9861 5.90828 11.1584C6.08051 11.3306 6.28884 11.4167 6.53328 11.4167ZM9.49995 11.4167C9.7444 11.4167 9.95273 11.3306 10.125 11.1584C10.2972 10.9861 10.3833 10.7778 10.3833 10.5334V6.1667C10.3833 5.92225 10.2972 5.71392 10.125 5.5417C9.95273 5.36948 9.7444 5.28337 9.49995 5.28337C9.25551 5.28337 9.04717 5.36948 8.87495 5.5417C8.70273 5.71392 8.61662 5.92225 8.61662 6.1667V10.5334C8.61662 10.7778 8.70273 10.9861 8.87495 11.1584C9.04717 11.3306 9.25551 11.4167 9.49995 11.4167Z" fill="#B30000"/>
</g>
</svg>
