<svg width="17" height="16" viewBox="0 0 17 16" fill="none" xmlns="http://www.w3.org/2000/svg">
<path d="M7.19159 11.6312L6.03334 12.7567C5.72962 13.0605 5.3177 13.2311 4.88818 13.2311C4.45866 13.2311 4.04673 13.0605 3.74301 12.7567C3.4393 12.453 3.26867 12.0411 3.26867 11.6116C3.26867 11.1821 3.4393 10.7701 3.74301 10.4664L6.7139 7.48899C7.0055 7.19644 7.39839 7.02718 7.8113 7.01622C8.22421 7.00525 8.62553 7.15343 8.93224 7.43009L9.01077 7.49553C9.13486 7.61702 9.30213 7.68423 9.47578 7.68239C9.64942 7.68055 9.81523 7.60981 9.93672 7.48572C10.0582 7.36163 10.1254 7.19436 10.1236 7.02071C10.1217 6.84706 10.051 6.68126 9.9269 6.55977C9.88977 6.51218 9.85047 6.46632 9.80911 6.42235C9.2505 5.93635 8.52805 5.68084 7.7881 5.70757C7.04815 5.7343 6.34602 6.04127 5.82394 6.56631L2.81379 9.54374C2.3023 10.1005 2.02567 10.8333 2.04167 11.5892C2.05768 12.345 2.36507 13.0655 2.89967 13.6001C3.43426 14.1347 4.15472 14.4421 4.91059 14.4581C5.66645 14.4741 6.39927 14.1975 6.95602 13.686L8.08809 12.5801C8.19987 12.4581 8.26132 12.2984 8.26007 12.1329C8.25882 11.9675 8.19497 11.8087 8.08136 11.6885C7.96775 11.5682 7.81282 11.4955 7.64774 11.4849C7.48266 11.4742 7.31968 11.5265 7.19159 11.6312ZM14.1869 2.31284C13.6364 1.76579 12.8919 1.45874 12.1158 1.45874C11.3397 1.45874 10.5952 1.76579 10.0447 2.31284L8.91261 3.41875C8.80083 3.54069 8.73939 3.70044 8.74064 3.86586C8.74188 4.03128 8.80574 4.19009 8.91935 4.31033C9.03295 4.43057 9.18788 4.50332 9.35297 4.51395C9.51805 4.52457 9.68103 4.47228 9.80911 4.3676L10.9412 3.24206C11.2449 2.93835 11.6568 2.76772 12.0864 2.76772C12.5159 2.76772 12.9278 2.93835 13.2315 3.24206C13.5352 3.54578 13.7059 3.95771 13.7059 4.38723C13.7059 4.81675 13.5352 5.22868 13.2315 5.53239L10.2606 8.50982C9.96904 8.80237 9.57614 8.97163 9.16323 8.98259C8.75032 8.99355 8.349 8.84538 8.04229 8.56871L7.96376 8.50328C7.83967 8.38179 7.6724 8.31457 7.49876 8.31641C7.32511 8.31825 7.1593 8.389 7.03781 8.51309C6.91633 8.63718 6.84911 8.80445 6.85095 8.9781C6.85279 9.15175 6.92354 9.31755 7.04763 9.43904C7.09539 9.48742 7.14562 9.53329 7.19814 9.57646C7.75742 10.061 8.47956 10.3155 9.21906 10.2888C9.95856 10.2621 10.6604 9.95612 11.1833 9.4325L14.1607 6.45507C14.7113 5.90806 15.023 5.16544 15.028 4.38935C15.0329 3.61327 14.7305 2.86677 14.1869 2.31284Z" fill="#1C4CD3" stroke="#1C4CD3" stroke-width="0.5"/>
</svg>
