<svg width="9" height="9" viewBox="0 0 9 9" fill="none" xmlns="http://www.w3.org/2000/svg">
<path d="M4.07812 8.32812C3.51562 8.32812 2.98828 8.22266 2.49609 8.01172C2.00651 7.80078 1.57552 7.50911 1.20312 7.13672C0.830729 6.76432 0.539062 6.33333 0.328125 5.84375C0.119792 5.35156 0.015625 4.82552 0.015625 4.26562C0.015625 3.70573 0.119792 3.18099 0.328125 2.69141C0.539062 2.19922 0.830729 1.76693 1.20312 1.39453C1.57552 1.02214 2.00651 0.730469 2.49609 0.519531C2.98828 0.308594 3.51562 0.203125 4.07812 0.203125C4.64062 0.203125 5.16667 0.308594 5.65625 0.519531C6.14844 0.730469 6.58073 1.02214 6.95312 1.39453C7.32552 1.76693 7.61589 2.19922 7.82422 2.69141C8.03516 3.18099 8.14062 3.70573 8.14062 4.26562C8.14062 4.82552 8.03516 5.35156 7.82422 5.84375C7.61589 6.33333 7.32552 6.76432 6.95312 7.13672C6.58073 7.50911 6.14844 7.80078 5.65625 8.01172C5.16667 8.22266 4.64062 8.32812 4.07812 8.32812ZM2.73047 6.91016L2.45703 6.75391L2.67578 6.37109L2.94922 6.52734L2.73047 6.91016ZM1.58594 5.88281L1.42969 5.60938L1.8125 5.38672L1.96875 5.66016L1.58594 5.88281ZM3.91797 7.23047V6.78906H4.23047V7.23047H3.91797ZM1.11328 4.41797V4.10547H1.55469V4.41797H1.11328ZM5.42188 6.91406L5.19922 6.53125L5.47266 6.375L5.69531 6.75781L5.42188 6.91406ZM1.81641 3.13672L1.43359 2.91797L1.58984 2.64453L1.97266 2.86328L1.81641 3.13672ZM2.61719 4.40625V4.11328H3.93359V4.40625H2.61719ZM4.07812 7.85938C4.57552 7.85938 5.04036 7.76562 5.47266 7.57812C5.90755 7.39062 6.28906 7.13281 6.61719 6.80469C6.94792 6.47396 7.20573 6.09245 7.39062 5.66016C7.57812 5.22526 7.67188 4.76042 7.67188 4.26562C7.67188 3.77083 7.57812 3.30729 7.39062 2.875C7.20573 2.4401 6.94792 2.05859 6.61719 1.73047C6.28906 1.39974 5.90755 1.14062 5.47266 0.953125C5.04036 0.765625 4.57552 0.671875 4.07812 0.671875C3.58073 0.671875 3.11458 0.765625 2.67969 0.953125C2.2474 1.14062 1.86589 1.39974 1.53516 1.73047C1.20703 2.05859 0.949219 2.4401 0.761719 2.875C0.576823 3.30729 0.484375 3.77083 0.484375 4.26562C0.484375 4.76042 0.576823 5.22526 0.761719 5.66016C0.949219 6.09245 1.20703 6.47396 1.53516 6.80469C1.86589 7.13281 2.2474 7.39062 2.67969 7.57812C3.11458 7.76562 3.58073 7.85938 4.07812 7.85938ZM4.07812 4.68359C3.96354 4.68359 3.86458 4.64193 3.78125 4.55859C3.70052 4.47526 3.66016 4.3776 3.66016 4.26562C3.66016 4.15104 3.70052 4.05339 3.78125 3.97266C3.86458 3.88932 3.96354 3.84766 4.07812 3.84766C4.19271 3.84766 4.29036 3.88932 4.37109 3.97266C4.45443 4.05339 4.49609 4.15104 4.49609 4.26562C4.49609 4.3776 4.45443 4.47526 4.37109 4.55859C4.29036 4.64193 4.19271 4.68359 4.07812 4.68359ZM6.56641 5.88672L6.18359 5.66797L6.33984 5.39453L6.72266 5.61328L6.56641 5.88672ZM2.68359 2.15625L2.46094 1.77344L2.73438 1.61719L2.95703 2L2.68359 2.15625ZM3.96484 4.07812V2.28906H4.19922V4.07812H3.96484ZM6.60156 4.42578V4.11328H7.04297V4.42578H6.60156ZM3.92578 1.74219V1.30078H4.23828V1.74219H3.92578ZM6.34375 3.14453L6.1875 2.87109L6.57031 2.64844L6.72656 2.92188L6.34375 3.14453ZM5.48047 2.16016L5.20703 2.00391L5.42578 1.62109L5.69922 1.77734L5.48047 2.16016Z" fill="#6E6E6E"/>
</svg>
