<svg width="14" height="14" viewBox="0 0 14 14" fill="none" xmlns="http://www.w3.org/2000/svg">
<path d="M4 14H3V12.5H1V14H0V12.5C0 12.2348 0.105357 11.9804 0.292893 11.7929C0.48043 11.6054 0.734784 11.5 1 11.5H3C3.26522 11.5 3.51957 11.6054 3.70711 11.7929C3.89464 11.9804 4 12.2348 4 12.5V14ZM14 14H13V12.5H11V14H10V12.5C10 12.2348 10.1054 11.9804 10.2929 11.7929C10.4804 11.6054 10.7348 11.5 11 11.5H13C13.2652 11.5 13.5196 11.6054 13.7071 11.7929C13.8946 11.9804 14 12.2348 14 12.5V14ZM9 14H8V12.5H6V14H5V12.5C5 12.2348 5.10536 11.9804 5.29289 11.7929C5.48043 11.6054 5.73478 11.5 6 11.5H8C8.26522 11.5 8.51957 11.6054 8.70711 11.7929C8.89464 11.9804 9 12.2348 9 12.5V14Z" fill="#454343"/>
<path d="M7 11C7.55228 11 8 10.5523 8 10C8 9.44772 7.55228 9 7 9C6.44772 9 6 9.44772 6 10C6 10.5523 6.44772 11 7 11Z" fill="#454343"/>
<path d="M2 11C2.55228 11 3 10.5523 3 10C3 9.44772 2.55228 9 2 9C1.44772 9 1 9.44772 1 10C1 10.5523 1.44772 11 2 11Z" fill="#454343"/>
<path d="M12 11C12.5523 11 13 10.5523 13 10C13 9.44772 12.5523 9 12 9C11.4477 9 11 9.44772 11 10C11 10.5523 11.4477 11 12 11Z" fill="#454343"/>
<path d="M9.5 9C10.0523 9 10.5 8.55228 10.5 8C10.5 7.44772 10.0523 7 9.5 7C8.94772 7 8.5 7.44772 8.5 8C8.5 8.55228 8.94772 9 9.5 9Z" fill="#454343"/>
<path d="M4.5 9C5.05228 9 5.5 8.55228 5.5 8C5.5 7.44772 5.05228 7 4.5 7C3.94772 7 3.5 7.44772 3.5 8C3.5 8.55228 3.94772 9 4.5 9Z" fill="#454343"/>
<path d="M12 6H2C1.73478 6 1.48043 5.89464 1.29289 5.70711C1.10536 5.51957 1 5.26522 1 5V1C1 0.734784 1.10536 0.48043 1.29289 0.292893C1.48043 0.105357 1.73478 0 2 0H12C12.2652 0 12.5196 0.105357 12.7071 0.292893C12.8946 0.48043 13 0.734784 13 1V5C13 5.26522 12.8946 5.51957 12.7071 5.70711C12.5196 5.89464 12.2652 6 12 6ZM2 1V5H12V1H2Z" fill="#454343"/>
</svg>
