<svg width="24" height="24" viewBox="0 0 24 24" fill="none" xmlns="http://www.w3.org/2000/svg">
<mask id="mask0_2197_4957" style="mask-type:alpha" maskUnits="userSpaceOnUse" x="0" y="0" width="24" height="24">
<rect width="24" height="24" fill="#D9D9D9"/>
</mask>
<g mask="url(#mask0_2197_4957)">
<path d="M8.73576 12L5.58992 8.85417C5.38159 8.64583 5.27742 8.38889 5.27742 8.08333C5.27742 7.77778 5.38159 7.52083 5.58992 7.3125C5.79826 7.10417 6.0552 7 6.36076 7C6.66631 7 6.92326 7.10417 7.13159 7.3125L11.0483 11.2292C11.2705 11.4514 11.3816 11.7083 11.3816 12C11.3816 12.2917 11.2705 12.5486 11.0483 12.7708L7.13159 16.6875C6.92326 16.8958 6.66631 17 6.36076 17C6.0552 17 5.79826 16.8958 5.58992 16.6875C5.38159 16.4792 5.27742 16.2222 5.27742 15.9167C5.27742 15.6111 5.38159 15.3542 5.58992 15.1458L8.73576 12Z" fill="#979797"/>
<path d="M15.4025 12L12.2567 8.85417C12.0483 8.64583 11.9442 8.38889 11.9442 8.08333C11.9442 7.77778 12.0483 7.52083 12.2567 7.3125C12.465 7.10417 12.722 7 13.0275 7C13.3331 7 13.59 7.10417 13.7983 7.3125L17.715 11.2292C17.9372 11.4514 18.0483 11.7083 18.0483 12C18.0483 12.2917 17.9372 12.5486 17.715 12.7708L13.7983 16.6875C13.59 16.8958 13.3331 17 13.0275 17C12.722 17 12.465 16.8958 12.2567 16.6875C12.0483 16.4792 11.9442 16.2222 11.9442 15.9167C11.9442 15.6111 12.0483 15.3542 12.2567 15.1458L15.4025 12Z" fill="#979797"/>
</g>
</svg>
