<svg width="24" height="24" viewBox="0 0 24 24" fill="none" xmlns="http://www.w3.org/2000/svg">
<mask id="mask0_2197_4962" style="mask-type:alpha" maskUnits="userSpaceOnUse" x="0" y="0" width="24" height="24">
<rect width="24" height="24" fill="#D9D9D9"/>
</mask>
<g mask="url(#mask0_2197_4962)">
<path d="M15.3356 15.432L15.3356 11.1279C15.3356 10.8429 15.4401 10.5959 15.6491 10.3868C15.8582 10.1778 16.1052 10.0733 16.3902 10.0733C16.6753 10.0733 16.9223 10.1778 17.1313 10.3868C17.3404 10.5959 17.4449 10.8429 17.4449 11.1279L17.4449 16.4866C17.4449 16.7907 17.3451 17.0425 17.1456 17.242C16.9461 17.4415 16.6943 17.5413 16.3902 17.5413L11.0315 17.5413C10.7465 17.5413 10.4995 17.4368 10.2904 17.2277C10.0814 17.0187 9.9769 16.7717 9.9769 16.4866C9.9769 16.2016 10.0814 15.9546 10.2904 15.7455C10.4995 15.5365 10.7465 15.432 11.0315 15.432L15.3356 15.432Z" fill="#979797"/>
<path d="M8.32992 9.2328L8.32992 13.5369C8.32992 13.8219 8.22541 14.0689 8.01638 14.278C7.80736 14.487 7.56032 14.5915 7.27529 14.5915C6.99025 14.5915 6.74322 14.487 6.53419 14.278C6.32516 14.0689 6.22065 13.8219 6.22065 13.5369L6.22065 8.17816C6.22065 7.87412 6.32041 7.62234 6.51994 7.42281C6.71946 7.22329 6.97125 7.12352 7.27529 7.12352L12.634 7.12352C12.919 7.12352 13.1661 7.22804 13.3751 7.43706C13.5841 7.64609 13.6886 7.89312 13.6886 8.17816C13.6886 8.4632 13.5841 8.71023 13.3751 8.91926C13.1661 9.12829 12.919 9.2328 12.634 9.2328L8.32992 9.2328Z" fill="#979797"/>
</g>
</svg>
