<svg width="10" height="9" viewBox="0 0 10 9" fill="none" xmlns="http://www.w3.org/2000/svg">
<path d="M1.00781 8.32812V1.58203L0.628906 0.945312C0.597656 0.893229 0.595052 0.84375 0.621094 0.796875C0.647135 0.75 0.690104 0.726562 0.75 0.726562H9.40625C9.46615 0.726562 9.50911 0.75 9.53516 0.796875C9.5612 0.84375 9.55859 0.893229 9.52734 0.945312L9.14844 1.58203V8.32812H1.00781ZM1.65625 6.98047V6.47266H2.16406V6.98047H1.65625ZM1.65625 5.80859V5.30078H2.16406V5.80859H1.65625ZM3.10156 6.98047V6.47266H3.60938V6.98047H3.10156ZM1.32031 7.74609H2.47656V1.03125H1.02734L1.32031 1.47656V7.74609ZM1.65625 4.63672V4.12891H2.16406V4.63672H1.65625ZM3.10156 5.80859V5.30078H3.60938V5.80859H3.10156ZM4.23828 7.74609H4.55078V6.53906H4.9375V7.74609H5.21875V6.53906H5.60547V7.74609H5.91797V6.26172H4.23828V7.74609ZM1.65625 3.46484V2.95703H2.16406V3.46484H1.65625ZM3.10156 4.63672V4.12891H3.60938V4.63672H3.10156ZM1.65625 2.29297V1.78516H2.16406V2.29297H1.65625ZM6.54688 6.98047V6.47266H7.05469V6.98047H6.54688ZM3.10156 3.46484V2.95703H3.60938V3.46484H3.10156ZM2.75 7.74609H3.96484V5.3125H6.19141V7.74609H7.40625V1.34766H2.75V7.74609ZM4.42969 4.63672V4.12891H5.72656V4.63672H4.42969ZM6.54688 5.80859V5.30078H7.05469V5.80859H6.54688ZM3.10156 2.29297V1.78516H3.60938V2.29297H3.10156ZM7.99219 6.98047V6.47266H8.5V6.98047H7.99219ZM4.42969 3.46484V2.95703H5.72656V3.46484H4.42969ZM6.54688 4.63672V4.12891H7.05469V4.63672H6.54688ZM7.99219 5.80859V5.30078H8.5V5.80859H7.99219ZM4.42969 2.29297V1.78516H5.72656V2.29297H4.42969ZM6.54688 3.46484V2.95703H7.05469V3.46484H6.54688ZM7.99219 4.63672V4.12891H8.5V4.63672H7.99219ZM7.67969 7.74609H8.83594V1.47656L9.12891 1.03125H7.67969V7.74609ZM3.875 1.05859V0.203125H6.28125V1.05859H3.875ZM6.54688 2.29297V1.78516H7.05469V2.29297H6.54688ZM7.99219 3.46484V2.95703H8.5V3.46484H7.99219ZM7.99219 2.29297V1.78516H8.5V2.29297H7.99219Z" fill="#6E6E6E"/>
</svg>
