<svg width="18" height="18" viewBox="0 0 18 18" fill="none" xmlns="http://www.w3.org/2000/svg">
<path d="M4.5 6V5.25C4.5 2.76472 6.51472 0.75 9 0.75C11.4853 0.75 13.5 2.76472 13.5 5.25V6H15C15.4142 6 15.75 6.33579 15.75 6.75V15.75C15.75 16.1642 15.4142 16.5 15 16.5H3C2.58579 16.5 2.25 16.1642 2.25 15.75V6.75C2.25 6.33579 2.58579 6 3 6H4.5ZM14.25 7.5H3.75V15H14.25V7.5ZM8.25 11.7993C7.80165 11.54 7.5 11.0552 7.5 10.5C7.5 9.67155 8.17155 9 9 9C9.82845 9 10.5 9.67155 10.5 10.5C10.5 11.0552 10.1983 11.54 9.75 11.7993V13.5H8.25V11.7993ZM6 6H12V5.25C12 3.59314 10.6568 2.25 9 2.25C7.34314 2.25 6 3.59314 6 5.25V6Z" fill="#1C1C1C"/>
</svg>
