<svg width="17" height="16" viewBox="0 0 17 16" fill="none" xmlns="http://www.w3.org/2000/svg">
<mask id="mask0_2446_36438" style="mask-type:alpha" maskUnits="userSpaceOnUse" x="0" y="0" width="17" height="16">
<rect x="0.5" width="16" height="16" fill="#D9D9D9"/>
</mask>
<g mask="url(#mask0_2446_36438)">
<path d="M3.73346 14.5333C3.24757 14.5333 2.83169 14.3603 2.4858 14.0143C2.1398 13.6685 1.9668 13.2526 1.9668 12.7667V3.23334C1.9668 2.74756 2.1398 2.33168 2.4858 1.98568C2.83169 1.63968 3.24757 1.46667 3.73346 1.46667H7.93346C8.17791 1.46667 8.38624 1.55279 8.55846 1.72501C8.73069 1.89723 8.8168 2.10556 8.8168 2.35001C8.8168 2.59445 8.73069 2.80279 8.55846 2.97501C8.38624 3.14723 8.17791 3.23334 7.93346 3.23334H3.73346V12.7667H13.2668V8.56668C13.2668 8.32223 13.3529 8.1139 13.5251 7.94168C13.6974 7.76945 13.9057 7.68334 14.1501 7.68334C14.3946 7.68334 14.6029 7.76945 14.7751 7.94168C14.9474 8.1139 15.0335 8.32223 15.0335 8.56668V12.7667C15.0335 13.2526 14.8605 13.6685 14.5145 14.0143C14.1685 14.3603 13.7526 14.5333 13.2668 14.5333H3.73346ZM13.2668 4.46667L7.53346 10.2C7.3668 10.3667 7.16124 10.45 6.9168 10.45C6.67235 10.45 6.4668 10.3667 6.30013 10.2C6.13346 10.0333 6.05013 9.82779 6.05013 9.58334C6.05013 9.3389 6.13346 9.13334 6.30013 8.96667L12.0335 3.23334H11.0335C10.789 3.23334 10.5807 3.14723 10.4085 2.97501C10.2362 2.80279 10.1501 2.59445 10.1501 2.35001C10.1501 2.10556 10.2362 1.89723 10.4085 1.72501C10.5807 1.55279 10.789 1.46667 11.0335 1.46667H14.1501C14.3946 1.46667 14.6029 1.55279 14.7751 1.72501C14.9474 1.89723 15.0335 2.10556 15.0335 2.35001V5.46667C15.0335 5.71112 14.9474 5.91945 14.7751 6.09167C14.6029 6.2639 14.3946 6.35001 14.1501 6.35001C13.9057 6.35001 13.6974 6.2639 13.5251 6.09167C13.3529 5.91945 13.2668 5.71112 13.2668 5.46667V4.46667Z" fill="#2579F5"/>
</g>
</svg>
