<svg width="10" height="8" viewBox="0 0 10 8" fill="none" xmlns="http://www.w3.org/2000/svg">
<path d="M0.542969 7.9375C0.509115 7.82812 0.484375 7.73307 0.46875 7.65234C0.455729 7.57422 0.449219 7.50521 0.449219 7.44531C0.449219 7.18229 0.554688 6.94792 0.765625 6.74219C0.976562 6.53385 1.26302 6.36328 1.625 6.23047C1.98958 6.09766 2.40104 6.01042 2.85938 5.96875V6.11719C2.54427 5.99219 2.26823 5.79297 2.03125 5.51953C1.79688 5.24349 1.61458 4.91667 1.48438 4.53906C1.35677 4.16146 1.29297 3.75651 1.29297 3.32422C1.29297 2.78255 1.38932 2.30729 1.58203 1.89844C1.77474 1.48958 2.04427 1.17057 2.39062 0.941406C2.73698 0.709635 3.13932 0.59375 3.59766 0.59375C4.05599 0.59375 4.45833 0.709635 4.80469 0.941406C5.15104 1.17057 5.42057 1.48958 5.61328 1.89844C5.80599 2.30729 5.90234 2.78255 5.90234 3.32422C5.90234 3.76953 5.83464 4.1862 5.69922 4.57422C5.56641 4.95964 5.38151 5.28776 5.14453 5.55859C4.91016 5.82943 4.64062 6.01693 4.33594 6.12109V5.96875C4.79427 6.01042 5.20443 6.09766 5.56641 6.23047C5.93099 6.36328 6.21875 6.53385 6.42969 6.74219C6.64062 6.94792 6.74609 7.18229 6.74609 7.44531C6.74609 7.50521 6.73828 7.57422 6.72266 7.65234C6.70964 7.73307 6.6862 7.82812 6.65234 7.9375H0.542969ZM0.78125 7.625H6.41406C6.42448 7.57812 6.42969 7.54167 6.42969 7.51562C6.43229 7.49219 6.43359 7.46875 6.43359 7.44531C6.43359 7.24219 6.33203 7.05729 6.12891 6.89062C5.92578 6.72396 5.64193 6.58464 5.27734 6.47266C4.91536 6.36068 4.49089 6.28906 4.00391 6.25781V5.91016C4.32943 5.80859 4.61068 5.63281 4.84766 5.38281C5.08464 5.13281 5.26693 4.83073 5.39453 4.47656C5.52474 4.1224 5.58984 3.73828 5.58984 3.32422C5.58984 2.83984 5.50651 2.41667 5.33984 2.05469C5.17578 1.69271 4.94401 1.41146 4.64453 1.21094C4.34766 1.00781 3.9987 0.90625 3.59766 0.90625C3.19922 0.90625 2.85026 1.00781 2.55078 1.21094C2.2513 1.41146 2.01823 1.69271 1.85156 2.05469C1.6875 2.41667 1.60547 2.83984 1.60547 3.32422C1.60547 3.7513 1.67188 4.14714 1.80469 4.51172C1.9401 4.8737 2.1276 5.17708 2.36719 5.42188C2.60677 5.66667 2.88151 5.82812 3.19141 5.90625V6.25391C2.6888 6.29557 2.25521 6.3737 1.89062 6.48828C1.52865 6.60026 1.25 6.73828 1.05469 6.90234C0.859375 7.06641 0.761719 7.2474 0.761719 7.44531C0.761719 7.46875 0.761719 7.49219 0.761719 7.51562C0.764323 7.54167 0.770833 7.57812 0.78125 7.625ZM6.56641 7.9375L6.54297 7.4375L6.33203 6.75391L4.92188 6.16797L5.60938 5.98438C5.4974 5.91406 5.39453 5.83464 5.30078 5.74609C5.20703 5.65495 5.11979 5.55859 5.03906 5.45703L5.71094 4.05469L5.6875 2.42578L4.98438 1.25781C5.1849 1.05469 5.41927 0.893229 5.6875 0.773438C5.95833 0.653646 6.2487 0.59375 6.55859 0.59375C7.01693 0.59375 7.41927 0.709635 7.76562 0.941406C8.11198 1.17057 8.38151 1.48958 8.57422 1.89844C8.76693 2.30729 8.86328 2.78255 8.86328 3.32422C8.86328 3.75911 8.79818 4.16797 8.66797 4.55078C8.54036 4.93099 8.36589 5.25781 8.14453 5.53125C7.92318 5.80208 7.67318 5.99479 7.39453 6.10938V5.95312C7.84245 6 8.23958 6.09245 8.58594 6.23047C8.9349 6.36849 9.20833 6.54167 9.40625 6.75C9.60677 6.95833 9.70703 7.1901 9.70703 7.44531C9.70703 7.50521 9.69922 7.57422 9.68359 7.65234C9.67057 7.73307 9.64714 7.82812 9.61328 7.9375H6.56641Z" fill="#6E6E6E"/>
</svg>
