<svg width="16" height="16" viewBox="0 0 16 16" fill="none" xmlns="http://www.w3.org/2000/svg">
<mask id="mask0_2122_19141" style="mask-type:alpha" maskUnits="userSpaceOnUse" x="0" y="0" width="24" height="24">
<rect width="24" height="24" fill="#D9D9D9"/>
</mask>
<g mask="url(#mask0_2122_19141)">
<path d="M3.23322 12.7668H4.18322L10.3666 6.58346L9.41655 5.65013L3.23322 11.8335V12.7668ZM2.34989 14.5335C2.10544 14.5335 1.89711 14.4474 1.72489 14.2751C1.55266 14.1029 1.46655 13.8946 1.46655 13.6501V11.8335C1.46655 11.6001 1.511 11.3751 1.59989 11.1585C1.68877 10.9418 1.81655 10.7501 1.98322 10.5835L10.7666 1.80013C10.8888 1.67791 11.0249 1.5918 11.1749 1.5418C11.3249 1.4918 11.4777 1.4668 11.6332 1.4668C11.7888 1.4668 11.936 1.48902 12.0749 1.53346C12.2138 1.57791 12.3443 1.66124 12.4666 1.78346L14.2166 3.53346C14.3388 3.65569 14.4221 3.78902 14.4666 3.93346C14.511 4.07791 14.5332 4.22791 14.5332 4.38346C14.5332 4.53902 14.5082 4.68902 14.4582 4.83346C14.4082 4.97791 14.3221 5.11124 14.1999 5.23346L5.41655 14.0168C5.24989 14.1835 5.05822 14.3112 4.84155 14.4001C4.62489 14.489 4.39989 14.5335 4.16655 14.5335H2.34989ZM9.89989 6.1168L9.41655 5.65013L10.3666 6.58346L9.89989 6.1168Z" fill="#454343"/>
</g>
</svg>
