<svg width="24" height="24" viewBox="0 0 24 24" fill="none" xmlns="http://www.w3.org/2000/svg">
<path fill-rule="evenodd" clip-rule="evenodd" d="M17.7605 9.75706L17.7673 9.75027C17.7897 9.73195 17.8827 9.65252 17.7598 9.26763C17.618 8.81757 17.2324 8.20392 16.576 7.5475C15.9195 6.89107 15.3052 6.50618 14.8572 6.36363C14.4709 6.24076 14.3922 6.33308 14.3732 6.35616L14.3664 6.36295C14.344 6.38128 14.251 6.4607 14.3745 6.84627C14.5157 7.29565 14.9013 7.90931 15.5577 8.56573C16.2142 9.22215 16.8285 9.60704 17.2772 9.75028C17.6628 9.87246 17.7415 9.78014 17.7605 9.75706ZM14.5395 9.58396C14.883 9.92745 15.2387 10.2288 15.5944 10.4787L14.568 12.6455L14.2598 13.2971L14.5965 13.9339C14.9006 14.5095 15.014 14.9487 15.0221 15.2419C15.0303 15.4945 14.9658 15.6065 14.8789 15.6934C14.7839 15.7884 14.5103 15.9873 13.6468 15.6533C12.7963 15.3241 11.7312 14.5821 10.6363 13.4872C9.54133 12.3923 8.79938 11.3272 8.47015 10.4766C8.13617 9.61315 8.33506 9.33959 8.4301 9.24455C8.51699 9.15766 8.62967 9.0925 8.8822 9.10064C9.17477 9.10947 9.61329 9.22351 10.1896 9.52694L10.8263 9.86364L11.478 9.55545L13.6448 8.52907C13.8933 8.88478 14.196 9.24048 14.5395 9.58396ZM18.7821 10.7719C18.2812 11.2729 17.6098 11.3564 16.878 11.1337L15.87 13.2618C16.5984 14.6419 16.7124 15.8963 15.8978 16.7109C14.6393 17.9695 12.334 17.0137 10.138 15.0037L7.92098 17.2207C7.78596 17.3557 7.60282 17.4316 7.41187 17.4316C7.22091 17.4316 7.03777 17.3557 6.90275 17.2207C6.76772 17.0857 6.69187 16.9026 6.69187 16.7116C6.69187 16.5206 6.76772 16.3375 6.90275 16.2025L9.11978 13.9854C7.10911 11.7901 6.15401 9.48418 7.41187 8.22632C8.22645 7.41173 9.48092 7.52577 10.861 8.25415L12.9897 7.24542C12.7671 6.51365 12.8506 5.84229 13.3516 5.34132C14.3698 4.32309 16.094 5.02906 17.5942 6.52926C19.0944 8.02946 19.8004 9.75367 18.7821 10.7719Z" fill="#454343"/>
</svg>
