<svg width="24" height="24" viewBox="0 0 24 24" fill="none" xmlns="http://www.w3.org/2000/svg">
<mask id="mask0_2197_3899" style="mask-type:alpha" maskUnits="userSpaceOnUse" x="0" y="0" width="24" height="24">
<rect width="24" height="24" fill="#D9D9D9"/>
</mask>
<g mask="url(#mask0_2197_3899)">
<path d="M10.675 13.3H5.525C5.15833 13.3 4.84583 13.1709 4.5875 12.9125C4.32917 12.6542 4.2 12.3417 4.2 11.975C4.2 11.6084 4.32917 11.2959 4.5875 11.0375C4.84583 10.7792 5.15833 10.65 5.525 10.65H10.675V5.50005C10.675 5.13338 10.8042 4.82088 11.0625 4.56255C11.3208 4.30422 11.6333 4.17505 12 4.17505C12.3667 4.17505 12.6792 4.30422 12.9375 4.56255C13.1958 4.82088 13.325 5.13338 13.325 5.50005V10.65H18.475C18.8417 10.65 19.1542 10.7792 19.4125 11.0375C19.6708 11.2959 19.8 11.6084 19.8 11.975C19.8 12.3417 19.6708 12.6542 19.4125 12.9125C19.1542 13.1709 18.8417 13.3 18.475 13.3H13.325V18.45C13.325 18.8167 13.1958 19.1292 12.9375 19.3875C12.6792 19.6459 12.3667 19.775 12 19.775C11.6333 19.775 11.3208 19.6459 11.0625 19.3875C10.8042 19.1292 10.675 18.8167 10.675 18.45V13.3Z" fill="white"/>
</g>
</svg>
