<svg width="16" height="16" viewBox="0 0 16 16" fill="none" xmlns="http://www.w3.org/2000/svg">
<mask id="mask0_2446_7223" style="mask-type:alpha" maskUnits="userSpaceOnUse" x="0" y="0" width="16" height="16">
<rect width="16" height="16" fill="#D9D9D9"/>
</mask>
<g mask="url(#mask0_2446_7223)">
<path d="M6.28216 11.0333C4.95994 11.0333 3.8405 10.575 2.92383 9.65832C2.00716 8.74165 1.54883 7.62221 1.54883 6.29998C1.54883 4.97776 2.00716 3.85832 2.92383 2.94165C3.8405 2.02498 4.95994 1.56665 6.28216 1.56665C7.60438 1.56665 8.72383 2.02498 9.6405 2.94165C10.5572 3.85832 11.0155 4.97776 11.0155 6.29998C11.0155 6.79998 10.9461 7.27776 10.8072 7.73332C10.6683 8.18887 10.4655 8.59443 10.1988 8.94998L13.8322 12.5833C13.9988 12.75 14.0822 12.9555 14.0822 13.2C14.0822 13.4444 13.9988 13.65 13.8322 13.8167C13.6655 13.9833 13.4599 14.0667 13.2155 14.0667C12.9711 14.0667 12.7655 13.9833 12.5988 13.8167L8.98216 10.2C8.64883 10.4555 8.2405 10.6583 7.75716 10.8083C7.27383 10.9583 6.78216 11.0333 6.28216 11.0333ZM6.28216 9.26665C7.1155 9.26665 7.81827 8.98054 8.3905 8.40832C8.96272 7.83609 9.24883 7.13332 9.24883 6.29998C9.24883 5.46665 8.96272 4.76387 8.3905 4.19165C7.81827 3.61943 7.1155 3.33332 6.28216 3.33332C5.44883 3.33332 4.74605 3.61943 4.17383 4.19165C3.60161 4.76387 3.3155 5.46665 3.3155 6.29998C3.3155 7.13332 3.60161 7.83609 4.17383 8.40832C4.74605 8.98054 5.44883 9.26665 6.28216 9.26665Z" fill="#4999FA"/>
</g>
</svg>
