<svg width="10" height="9" viewBox="0 0 10 9" fill="none" xmlns="http://www.w3.org/2000/svg">
<path d="M4.80859 8.32812C4.45703 8.32812 4.09505 8.26693 3.72266 8.14453C3.35026 8.02214 2.99089 7.84505 2.64453 7.61328C2.30078 7.38151 1.99089 7.10026 1.71484 6.76953C1.44141 6.4362 1.22396 6.0599 1.0625 5.64062C0.901042 5.21875 0.820312 4.75911 0.820312 4.26172C0.820312 3.76432 0.901042 3.30599 1.0625 2.88672C1.22396 2.46484 1.44141 2.08854 1.71484 1.75781C1.99089 1.42708 2.30078 1.14583 2.64453 0.914062C2.99089 0.682292 3.35026 0.50651 3.72266 0.386719C4.09505 0.264323 4.45703 0.203125 4.80859 0.203125C5.16016 0.203125 5.52214 0.264323 5.89453 0.386719C6.26693 0.50651 6.625 0.682292 6.96875 0.914062C7.3151 1.14583 7.625 1.42708 7.89844 1.75781C8.17448 2.08854 8.39323 2.46484 8.55469 2.88672C8.71615 3.30599 8.79688 3.76432 8.79688 4.26172C8.79688 4.75911 8.71615 5.21875 8.55469 5.64062C8.39323 6.0599 8.17448 6.4362 7.89844 6.76953C7.625 7.10026 7.3151 7.38151 6.96875 7.61328C6.625 7.84505 6.26693 8.02214 5.89453 8.14453C5.52214 8.26693 5.16016 8.32812 4.80859 8.32812ZM4.80859 8.01562C5.14193 8.01562 5.48047 7.95964 5.82422 7.84766C6.17057 7.73828 6.5013 7.57682 6.81641 7.36328C7.13411 7.15234 7.41797 6.89453 7.66797 6.58984C7.92057 6.28255 8.11979 5.93359 8.26562 5.54297C8.41146 5.15234 8.48438 4.72526 8.48438 4.26172C8.48438 3.79557 8.41146 3.36849 8.26562 2.98047C8.11979 2.58984 7.92188 2.24219 7.67188 1.9375C7.42188 1.63281 7.13802 1.375 6.82031 1.16406C6.5026 0.953125 6.17057 0.792969 5.82422 0.683594C5.48047 0.571615 5.14193 0.515625 4.80859 0.515625C4.47526 0.515625 4.13542 0.571615 3.78906 0.683594C3.44531 0.792969 3.11458 0.953125 2.79688 1.16406C2.47917 1.375 2.19531 1.63281 1.94531 1.9375C1.69531 2.24219 1.4974 2.58984 1.35156 2.98047C1.20573 3.36849 1.13281 3.79557 1.13281 4.26172C1.13281 4.72526 1.20573 5.15234 1.35156 5.54297C1.4974 5.93359 1.69531 6.28255 1.94531 6.58984C2.19792 6.89453 2.48177 7.15234 2.79688 7.36328C3.11458 7.57682 3.44661 7.73828 3.79297 7.84766C4.13932 7.95964 4.47786 8.01562 4.80859 8.01562ZM4.80859 7.22266C4.40755 7.22266 4.02995 7.14583 3.67578 6.99219C3.32161 6.83594 3.00781 6.6224 2.73438 6.35156C2.46354 6.07812 2.25 5.76302 2.09375 5.40625C1.9401 5.04948 1.86328 4.67057 1.86328 4.26953C1.86328 3.86849 1.94141 3.48958 2.09766 3.13281C2.25391 2.77604 2.46745 2.46094 2.73828 2.1875C3.01172 1.91406 3.32552 1.69922 3.67969 1.54297C4.03385 1.38672 4.41016 1.30859 4.80859 1.30859C5.20703 1.30859 5.58333 1.38672 5.9375 1.54297C6.29167 1.69922 6.60417 1.91406 6.875 2.1875C7.14844 2.46094 7.36328 2.77604 7.51953 3.13281C7.67578 3.48958 7.75391 3.86849 7.75391 4.26953C7.75391 4.67057 7.67578 5.04948 7.51953 5.40625C7.36589 5.76302 7.15234 6.07812 6.87891 6.35156C6.60807 6.6224 6.29557 6.83594 5.94141 6.99219C5.58724 7.14583 5.20964 7.22266 4.80859 7.22266ZM4.80859 6.91016C5.16536 6.91016 5.5026 6.84115 5.82031 6.70312C6.13802 6.5651 6.41797 6.3737 6.66016 6.12891C6.90495 5.88411 7.09635 5.60286 7.23438 5.28516C7.3724 4.96745 7.44141 4.62891 7.44141 4.26953C7.44141 3.91016 7.37109 3.57161 7.23047 3.25391C7.09245 2.93359 6.90104 2.65104 6.65625 2.40625C6.41146 2.16146 6.13021 1.97005 5.8125 1.83203C5.4974 1.69141 5.16276 1.62109 4.80859 1.62109C4.45443 1.62109 4.11849 1.69141 3.80078 1.83203C3.48568 1.97005 3.20573 2.16146 2.96094 2.40625C2.71615 2.65104 2.52344 2.93359 2.38281 3.25391C2.24479 3.57161 2.17578 3.91016 2.17578 4.26953C2.17578 4.62891 2.24479 4.96745 2.38281 5.28516C2.52083 5.60286 2.71094 5.88411 2.95312 6.12891C3.19792 6.3737 3.47917 6.5651 3.79688 6.70312C4.11458 6.84115 4.45182 6.91016 4.80859 6.91016ZM4.80859 6.16016C4.44922 6.16016 4.125 6.07682 3.83594 5.91016C3.54688 5.74349 3.31771 5.51693 3.14844 5.23047C2.98177 4.94401 2.89844 4.62109 2.89844 4.26172C2.89844 3.90755 2.98307 3.58854 3.15234 3.30469C3.32161 3.01823 3.55078 2.79167 3.83984 2.625C4.12891 2.45833 4.45182 2.375 4.80859 2.375C5.16536 2.375 5.48828 2.45833 5.77734 2.625C6.06641 2.79167 6.29557 3.01823 6.46484 3.30469C6.63411 3.58854 6.71875 3.90755 6.71875 4.26172C6.71875 4.62109 6.63411 4.94401 6.46484 5.23047C6.29818 5.51693 6.07031 5.74349 5.78125 5.91016C5.49479 6.07682 5.17057 6.16016 4.80859 6.16016ZM4.80859 5.84766C5.11328 5.84766 5.38542 5.77865 5.625 5.64062C5.86719 5.5026 6.05729 5.3138 6.19531 5.07422C6.33594 4.83464 6.40625 4.5638 6.40625 4.26172C6.40625 3.96484 6.33594 3.69792 6.19531 3.46094C6.05469 3.22396 5.86328 3.03646 5.62109 2.89844C5.38151 2.75781 5.11068 2.6875 4.80859 2.6875C4.50911 2.6875 4.23828 2.75781 3.99609 2.89844C3.75391 3.03646 3.5625 3.22396 3.42188 3.46094C3.28125 3.69792 3.21094 3.96484 3.21094 4.26172C3.21094 4.5638 3.27995 4.83464 3.41797 5.07422C3.55859 5.3138 3.7487 5.5026 3.98828 5.64062C4.23047 5.77865 4.50391 5.84766 4.80859 5.84766ZM4.80859 4.89062C4.63411 4.89062 4.48698 4.83333 4.36719 4.71875C4.25 4.60417 4.19141 4.45182 4.19141 4.26172C4.19141 4.06901 4.25 3.91667 4.36719 3.80469C4.48698 3.6901 4.63411 3.63281 4.80859 3.63281C4.98307 3.63281 5.12891 3.6901 5.24609 3.80469C5.36589 3.91667 5.42578 4.06901 5.42578 4.26172C5.42578 4.45182 5.36589 4.60417 5.24609 4.71875C5.12891 4.83333 4.98307 4.89062 4.80859 4.89062ZM4.92188 4.39844L4.78906 4.11719L9.20312 2.05469L9.33594 2.33594L4.92188 4.39844ZM8.28906 3.62109C8.15104 3.62109 8.00391 3.60547 7.84766 3.57422C7.69401 3.54297 7.54818 3.5026 7.41016 3.45312C7.27214 3.40104 7.15755 3.34505 7.06641 3.28516L7.01172 3.15234C7.04036 2.99609 7.08984 2.83203 7.16016 2.66016C7.23047 2.48568 7.31901 2.32292 7.42578 2.17188C7.53516 2.02083 7.66016 1.89844 7.80078 1.80469C7.94141 1.70833 8.09375 1.66016 8.25781 1.66016C8.36458 1.66016 8.47005 1.68099 8.57422 1.72266C8.67839 1.76172 8.75781 1.8112 8.8125 1.87109L8.71484 2.38281L8.76953 2.50781L9.23828 2.80859C9.23828 3.04557 9.15365 3.24089 8.98438 3.39453C8.8151 3.54557 8.58333 3.62109 8.28906 3.62109Z" fill="#6E6E6E"/>
</svg>
