<svg width="18" height="18" viewBox="0 0 18 18" fill="none" xmlns="http://www.w3.org/2000/svg">
<rect width="18" height="18" rx="9" transform="matrix(1 0 0 -1 0 18)" fill="#2579F5"/>
<path d="M8.325 7.02495L8.325 12.6C8.325 12.7833 8.38958 12.9395 8.51875 13.0687C8.64792 13.1979 8.80417 13.2625 8.9875 13.2625C9.17083 13.2625 9.32708 13.1979 9.45625 13.0687C9.58542 12.9395 9.65 12.7833 9.65 12.6L9.65 7.02495L11.975 9.34995C12.1083 9.48328 12.2667 9.54995 12.45 9.54995C12.6333 9.54995 12.7917 9.48328 12.925 9.34995C13.0583 9.21662 13.125 9.05828 13.125 8.87495C13.125 8.69162 13.0583 8.53328 12.925 8.39995L9.45 4.92495C9.38333 4.85828 9.3125 4.81037 9.2375 4.7812C9.1625 4.75203 9.07917 4.73745 8.9875 4.73745C8.89583 4.73745 8.8125 4.75203 8.7375 4.7812C8.6625 4.81037 8.59167 4.85828 8.525 4.92495L5.075 8.37495C4.94167 8.50828 4.875 8.66662 4.875 8.84995C4.875 9.03328 4.94167 9.19162 5.075 9.32495C5.20833 9.45828 5.36667 9.52495 5.55 9.52495C5.73333 9.52495 5.89167 9.45828 6.025 9.32495L8.325 7.02495Z" fill="white"/>
</svg>
